<svg xmlns="http://www.w3.org/2000/svg" width="1440" height="1440" version="1" viewBox="0 0 1080 1080"><path d="M758.8 135.5c-.4 1.1-1.7 6.3-2.8 11.5-3.6 16.5-9.9 40.8-16.1 62.5-11.2 39.1-23.8 78-39.8 122.4-9.5 26.1-31.5 83-38.6 99.6-.7 1.6-2.5 5.7-3.9 9-9.9 23.6-22.7 53.4-27.3 63.5-1.2 2.5-5.2 11.5-9.1 20-3.8 8.5-10.9 23.8-15.7 34-4.8 10.2-10.7 22.5-13 27.5-2.3 4.9-7 14.5-10.4 21.2-3.4 6.8-5.9 12.3-5.6 12.3 1.3 0 30-45 45.5-71.5 64.6-109.8 107.5-210.5 127.5-300 4.4-19.8 7.8-42.5 9.5-63 1.2-14.7 1-52.5-.2-49zM639 289.3c-45.9 20-79.1 59.5-93.1 110.7-3.2 11.5-6.1 26.2-8.1 41-1.9 14.2-1.6 57.1.5 74.5 1.9 15.6 5.5 36.9 6.8 40 .4 1.1.8-5.8.8-16.1.3-84.8 21.9-154.9 66-214.1 5.3-7.2 15.3-18.6 22.6-26.1 7.3-7.2 12.9-13.2 12.6-13.2-.3 0-4 1.5-8.1 3.3zM784.1 323.8c-7.1 18.5-25.1 58-39.6 86.7-27.8 55.1-54.9 100.6-86.8 146-7.2 10.1-31.5 42.6-32.7 43.5-.4.3-2.8 3.2-5.5 6.5-11.9 14.9-24.2 29-35.5 41-4.2 4.4-10.7 11.3-14.6 15.4l-6.9 7.4 5-3.3c7.4-5 25-18.9 32.6-25.6 3.7-3.2 9.3-8.2 12.5-10.9 8.3-7.1 34.3-33.1 45.5-45.5 59.6-65.8 102-141.8 120.4-216 5.4-21.8 11.1-54 9.6-54-.3 0-2.1 4-4 8.8zM637 367.1c-2.9 3-7 7.9-9.3 10.9-2.2 3-4.3 5.7-4.7 6-1.3 1-12 19-15.9 26.8-10.2 20.3-19.5 48.3-25.1 75.7-4.5 22-10.3 66.6-8.8 68.1.3.2 1.9-5.6 3.8-12.9 8.7-35 36-109.9 61.9-169.6 2.3-5.2 3.9-9.6 3.7-9.9-.3-.2-2.8 2-5.6 4.9zM514.3 384.5c-18.3 7-37.1 22.5-48.5 39.8-9.4 14.2-13.9 25.9-16.3 42.5-3.4 23-5.6 35.5-7.1 40.5-5 16.7-14 36.8-22 49.4-9.8 15.4-25.8 33.8-36.8 42.3l-5.3 4-5.5-1.9c-3-1-9.7-2.4-14.9-3.1-20.2-2.6-29.1-7.9-34.8-21.1-4.3-9.9-3.5-20.2 2.2-29.7 2.9-4.8 11.6-13.2 13.8-13.2.4 0 1.6 2.7 2.5 6.1 1.3 4.5 2.9 7.4 6.4 11.2 4.2 4.6 4.7 5.7 4.8 10.1.2 8.6 2.7 15 8.1 20.5 2.8 2.8 5.4 5.1 5.9 5.1s.4-2.3-.3-5.4c-2.3-9.7.2-21.6 4.4-21.6 5 0 13.1-4.2 17.4-9 10.7-11.9 9.6-29.6-2.5-39.3-10.8-8.6-19.8-8.8-42-.8-18.6 6.7-34.7 17-49.3 31.6-15.2 15.2-25.5 32-32 51.9-4.8 14.7-6.6 25.7-6.6 42.1-.1 32.5 8.9 58.5 29.3 84.6 14.2 18.2 28.8 26.7 57.8 33.6 13.1 3.1 39.9 4.3 53.1 2.3 18.4-2.6 33.1-7.1 48.2-14.6 47.4-23.8 78.4-67.6 84.8-119.7 1.6-13 .6-37.4-1.9-49.2-3.9-18.1-10.5-34.8-19.2-49-11.1-18-15.3-27.3-18.7-41.8-2.4-10-2.3-33.5 0-43.6 4.4-18.4 14.5-37.5 26.3-49.7 3.9-4.1 6.6-7.4 6-7.4-.6.1-3.9 1.2-7.3 2.5zM810.2 464.4c-10.3 21.5-28.2 49.2-47.3 73.1-10.6 13.3-13.2 16.2-25.9 29.8-41.7 44.7-92.1 83.5-153.2 118.1-12.8 7.2-42.6 22.5-52.6 27-3.5 1.5-6.1 3-5.9 3.2 1.1 1.2 29.3-6.5 53.7-14.6 47.8-15.8 96.9-41.2 132.5-68.5 14.2-10.9 33.8-28.6 41.5-37.5 3-3.5 6.2-7.1 7-8 .8-.9 4.3-5.2 7.6-9.5 19.6-25.5 33.7-54.2 41.4-83.9 2.7-10.8 7.4-38.5 6.6-39.3-.2-.3-2.7 4.3-5.4 10.1z"/><path d="M428 465.4c-9.8 2.7-18.3 7.9-26.5 16.1-6.9 6.9-14.4 17.9-13.1 19.2.2.2 2-1.9 4-4.6 8.1-11 18.8-18.4 32.1-22.2 5.8-1.7 8.7-3.1 10.7-5.4 1.5-1.6 2.8-3.3 2.8-3.8 0-1-4.8-.7-10 .7zM395.8 475.3c-4.9 3.7-10.8 14.1-10.8 19.1 0 2.7.4 2.3 2.5-2.9 1.7-4.1 3.9-7.4 7.3-10.5 5-4.5 8.1-9 6.3-9-.5 0-2.9 1.5-5.3 3.3zM413.4 487.5c-6.5 1.5-11.3 4.5-16.4 10.2-5 5.8-5.2 7.6-.2 2.7 4.3-4.2 11.1-7.8 16.3-8.8 3.6-.6 7.8-4 6.2-4.9-.4-.2-3.1.1-5.9.8zM821.6 621c-3.3 7.6-13.6 21.9-22.4 31.2-17 17.9-36.3 32.1-58.9 43.2-39.1 19.3-83.6 30.4-138.8 34.7-16.8 1.3-68.4 1.7-81.6.6-8.2-.7-15.5.3-11.9 1.7 3.9 1.4 20.7 5.8 31 8.1 41.3 9.2 69.2 12.5 106.5 12.5 25 0 40.1-1.4 59.7-5.5 58.8-12.3 97.5-45.6 112.8-97.3 3.5-11.8 6.2-26.1 5.8-30.4l-.3-3.1-1.9 4.3zM496.1 751c.9 1.4 3 5 4.8 8 8.6 14.9 24.3 37.9 26.4 38.8.4.2.7.8.7 1.2 0 1.9 17.5 20 27 28 3.6 3 6.7 5.8 7 6.1 2 2.3 13.3 8.9 14.3 8.3.6-.4.9-.3.4.1-.6.7 7.2 6.5 8.8 6.5.2 0 2.8 1.1 5.7 2.4 13.8 6.4 23.6 9.2 43.8 12.4 2.5.4 11 .6 19 .6 20.5-.2 40.5-4.4 66.9-13.9 11.3-4.1 48.1-22.4 48.1-24 0-.5-4.6.1-5.7.8-1.5 1-14.8 3.4-25.8 4.8-12.2 1.5-42.4 1.4-56-.1-8.9-1.1-22.7-3.4-35.5-6.2-2.5-.5-5.6-1.1-7-1.4-3.2-.6-25.9-7.9-33-10.6-15.7-6-40.6-17.8-54.2-25.6-2.1-1.2-5.4-3.1-7.3-4.2-4.7-2.7-30.6-19.9-32.5-21.6-1.8-1.7-13.9-10.7-16-11.9-1.3-.8-1.2-.5.1 1.5zM471.3 763c-4.2 18.7-5 46-2 62.7 5 26.8 15.4 47.1 33.5 65.3 23 23.1 56.2 38.2 100.7 45.5 11.2 1.9 38.4 4.5 46 4.4 5-.1 5-.1-6-3.8-23.5-8.1-54.7-22.9-74.2-35.1-47.8-30-76.5-62.8-89.4-102.1-3.5-10.8-4.7-17-6.7-35.4l-.7-7-1.2 5.5zM444 767.6c-25.6 14.3-42.6 32.5-49.7 53.3-2.1 6.1-2.6 9.5-2.6 17.1 0 26.6 14.4 50.1 49.8 81.2 8.9 7.8 37.5 28.1 38.4 27.3.2-.2-1.5-2.4-3.7-4.7-10.2-11-24.3-30.6-33.7-47.1-23.5-41.2-28.1-77.6-13.3-104.7 3-5.4 13.4-19 14.7-19 1-.1 8.5-7 7.5-7-.5 0-3.8 1.6-7.4 3.6zM394.5 771.7c-1.6.2-4.8.8-7 1.3s-8.9 2.1-15 3.5c-20.8 4.9-28.6 8.7-38.8 18.6-7.2 7.2-11.5 14.9-13.6 24.7-3.2 15.3.8 36.6 10.9 57.5 4.2 8.7 4.3 8.3 1.6-5.8-3.1-16-1.5-35.1 4-48.9 6.9-17.3 20.8-29.8 43-38.6 18.9-7.5 28.1-13.2 20.7-12.9-1.5.1-4.1.4-5.8.6z"/></svg>