<?xml version="1.0" standalone="no"?>
<!DOCTYPE svg PUBLIC "-//W3C//DTD SVG 20010904//EN"
 "http://www.w3.org/TR/2001/REC-SVG-20010904/DTD/svg10.dtd">
<svg version="1.0" xmlns="http://www.w3.org/2000/svg"
 width="1080.000000pt" height="1080.000000pt" viewBox="0 0 1080.000000 1080.000000"
 preserveAspectRatio="xMidYMid meet">
<metadata>
Created by potrace 1.11, written by Peter Selinger 2001-2013
</metadata>
<g transform="translate(0.000000,1080.000000) scale(0.100000,-0.100000)"
fill="#000000" stroke="none">
<path d="M0 5400 l0 -5400 5400 0 5400 0 0 5400 0 5400 -5400 0 -5400 0 0
-5400z m7210 2960 c-43 -554 -222 -1176 -550 -1905 -68 -151 -256 -534 -305
-620 -12 -22 -42 -76 -65 -120 -99 -187 -253 -448 -425 -722 -129 -206 -135
-208 -44 -18 89 186 137 288 179 380 15 33 42 92 60 130 126 273 279 629 415
965 91 228 145 366 270 705 152 409 347 1051 436 1435 l34 145 3 -115 c2 -63
-2 -180 -8 -260z m-962 -897 c-35 -29 -49 -43 -140 -141 -236 -254 -444 -645
-552 -1037 -71 -260 -106 -518 -109 -816 -2 -205 -3 -203 -44 56 -25 161 -25
650 0 788 31 167 83 357 98 357 6 0 8 4 5 9 -13 20 111 274 128 264 5 -3 6 -2
3 4 -17 27 226 314 253 298 6 -3 9 -1 8 6 -4 19 144 123 262 183 120 62 135
67 88 29z m-52 -730 c-210 -492 -385 -970 -480 -1313 -40 -143 -44 -127 -21
75 54 462 183 871 360 1140 57 86 184 240 192 232 2 -3 -20 -63 -51 -134z
m-861 -3276 c653 -426 1359 -573 1980 -411 38 10 -61 -47 -215 -125 -456 -227
-861 -267 -1227 -121 -294 118 -555 368 -778 746 -26 43 -56 94 -67 113 -18
29 -6 22 93 -52 63 -46 159 -114 214 -150z m-457 -137 c63 -259 224 -501 477
-716 229 -194 607 -401 940 -512 l30 -10 -35 -1 c-53 -1 -304 27 -400 44 -499
89 -833 308 -989 647 -98 213 -123 488 -69 753 l13 60 6 -90 c3 -49 16 -128
27 -175z"/>
</g>
</svg>
