<svg xmlns="http://www.w3.org/2000/svg" xmlns:xlink="http://www.w3.org/1999/xlink" id="eiimr19nil21" shape-rendering="geometricPrecision" text-rendering="geometricPrecision" viewBox="0 0 400 152.67"><style>@keyframes eiimr19nil23_to__to{0%,26.666667%{transform:translate(200px,76.335px)}60%{transform:translate(60.69913px,76.335px)}}@keyframes eiimr19nil23_tr__tr{0%{transform:rotate(90deg)}26.666667%{transform:rotate(0deg)}}@keyframes eiimr19nil23_ts__ts{0%{transform:scale(0,0)}26.666667%{transform:scale(1,1)}}@keyframes eiimr19nil210_c_o{0%,60%{opacity:0}96.666667%{opacity:1}}#eiimr19nil23_to{animation:eiimr19nil23_to__to 3000ms linear 1 normal forwards}#eiimr19nil23_tr{animation:eiimr19nil23_tr__tr 3000ms linear 1 normal forwards}#eiimr19nil23_ts{animation:eiimr19nil23_ts__ts 3000ms linear 1 normal forwards}#eiimr19nil210{animation:eiimr19nil210_c_o 3000ms linear 1 normal forwards}</style><g id="eiimr19nil22"><g id="eiimr19nil23_to" transform="translate(200,76.335000)"><g id="eiimr19nil23_tr" transform="rotate(90)"><g id="eiimr19nil23_ts" transform="scale(0,0)"><g id="eiimr19nil23" transform="translate(-50.519673,-72.377403)"><path id="eiimr19nil24" fill="#C73227" fill-rule="evenodd" stroke="none" stroke-width="1" d="M69.249000,27.255000C67.764000,27.701000,64.648000,29.426000,62.500000,30.991000C57.381000,34.722000,53.295000,40.756000,51.659000,47C51.455000,47.779000,51.112000,49.092000,50.896000,49.917000C50.680000,50.742000,50.502000,51.647000,50.502000,51.929000C50.501000,52.211000,50.372000,53.223000,50.216000,54.179000C49.807000,56.676000,49.803000,64.819000,50.208000,68.083000C50.367000,69.367000,50.535000,70.754000,50.580000,71.167000C50.718000,72.421000,51.542000,76,51.692000,76C51.770000,76,51.834000,73.881000,51.835000,71.292000C51.835000,68.702000,51.909000,65.908000,51.999000,65.083000C52.320000,62.117000,53.030000,57.879000,53.534000,55.917000C53.817000,54.817000,54.144000,53.504000,54.260000,53C55.017000,49.724000,58.252000,42.138000,60.160000,39.164000C60.485000,38.659000,60.862000,38.051000,61,37.812000C61.304000,37.286000,62.668000,35.307000,63.294000,34.484000C63.545000,34.155000,64.083000,33.442000,64.490000,32.901000C64.898000,32.360000,66.309000,30.841000,67.627000,29.525000C68.945000,28.210000,69.999000,27.116000,69.970000,27.094000C69.941000,27.072000,69.616000,27.144000,69.249000,27.255000M93.943000,33.794000C93.279000,35.477000,92.205000,38.032000,91.616000,39.333000C91.429000,39.746000,90.986000,40.721000,90.631000,41.500000C90.277000,42.279000,89.821000,43.287000,89.619000,43.740000C89.186000,44.705000,85.302000,52.426000,84.456000,54C84.136000,54.596000,83.555000,55.683000,83.163000,56.417000C82.772000,57.150000,82.276000,58.011000,82.059000,58.330000C81.843000,58.650000,81.666000,58.987000,81.666000,59.080000C81.666000,59.174000,81.366000,59.700000,81,60.250000C80.634000,60.800000,80.334000,61.307000,80.334000,61.378000C80.334000,61.448000,80.081000,61.898000,79.773000,62.378000C79.464000,62.857000,78.996000,63.613000,78.731000,64.056000C77.206000,66.613000,76.321000,68.024000,75.723000,68.856000C75.417000,69.280000,75.167000,69.677000,75.167000,69.738000C75.167000,69.798000,74.867000,70.254000,74.500000,70.750000C74.133000,71.246000,73.833000,71.714000,73.833000,71.788000C73.833000,71.863000,73.622000,72.185000,73.364000,72.504000C73.106000,72.822000,72.490000,73.683000,71.994000,74.417000C71.498000,75.150000,70.865000,76.050000,70.588000,76.417000C70.310000,76.783000,70.008000,77.205000,69.917000,77.354000C69.664000,77.765000,67.802000,80.219000,67.552000,80.470000C67.432000,80.591000,67.333000,80.741000,67.333000,80.804000C67.332000,80.866000,67.088000,81.195000,66.791000,81.536000C66.493000,81.877000,65.950000,82.539000,65.583000,83.008000C62.800000,86.565000,59.907000,89.826000,56.414000,93.344000C54.722000,95.048000,54.241000,95.667000,54.609000,95.667000C54.776000,95.667000,58.934000,92.506000,60.500000,91.189000C61.622000,90.245000,64.420000,87.779000,64.761000,87.433000C64.950000,87.240000,65.925000,86.291000,66.927000,85.322000C69.527000,82.810000,73.509000,78.516000,74.644000,77C74.885000,76.679000,75.123000,76.379000,75.175000,76.333000C75.226000,76.287000,75.711000,75.688000,76.253000,75C76.795000,74.313000,77.334000,73.651000,77.452000,73.530000C77.570000,73.409000,77.667000,73.254000,77.667000,73.186000C77.667000,73.118000,77.805000,72.914000,77.975000,72.732000C78.145000,72.550000,78.552000,72.018000,78.880000,71.551000C79.209000,71.084000,79.932000,70.062000,80.489000,69.279000C81.045000,68.497000,81.500000,67.801000,81.500000,67.733000C81.500000,67.665000,81.606000,67.491000,81.735000,67.346000C82.138000,66.894000,84.374000,63.207000,85.382000,61.333000C87.255000,57.851000,90.667000,50.400000,90.667000,49.792000C90.667000,49.692000,90.865000,49.116000,91.108000,48.513000C91.350000,47.910000,91.679000,46.929000,91.838000,46.333000C91.997000,45.737000,92.358000,44.462000,92.639000,43.500000C93.099000,41.928000,93.340000,40.952000,94.101000,37.583000C94.226000,37.033000,94.404000,35.884000,94.497000,35.029000C94.590000,34.174000,94.714000,33.180000,94.771000,32.820000C94.950000,31.703000,94.611000,32.102000,93.943000,33.794000M68.146000,41.147000C67.653000,41.602000,66.987000,42.324000,66.667000,42.751000C66.346000,43.178000,65.854000,43.803000,65.574000,44.139000C65.294000,44.475000,64.827000,45.125000,64.537000,45.583000C64.246000,46.042000,63.951000,46.496000,63.879000,46.593000C63.748000,46.772000,63.406000,47.409000,62.632000,48.917000C61.422000,51.274000,61,52.169000,61,52.378000C61,52.504000,60.732000,53.227000,60.404000,53.983000C60.076000,54.740000,59.790000,55.522000,59.767000,55.721000C59.745000,55.920000,59.534000,56.683000,59.299000,57.417000C58.563000,59.716000,58.333000,60.529000,58.333000,60.835000C58.333000,60.998000,58.119000,62.095000,57.857000,63.274000C57.171000,66.367000,56.952000,67.886000,56.482000,72.855000C56.226000,75.552000,56.558000,76.572000,56.914000,74.184000C56.969000,73.813000,57.206000,72.889000,57.440000,72.130000C57.674000,71.371000,57.982000,70.300000,58.124000,69.750000C58.266000,69.200000,58.550000,68.262000,58.753000,67.667000C58.957000,67.071000,59.216000,66.246000,59.328000,65.833000C59.441000,65.421000,59.645000,64.783000,59.784000,64.417000C59.922000,64.050000,60.357000,62.850000,60.751000,61.750000C62.243000,57.585000,62.798000,56.068000,63.007000,55.583000C63.125000,55.308000,63.230000,55.046000,63.239000,55C63.248000,54.954000,63.300000,54.842000,63.355000,54.750000C63.409000,54.658000,63.507000,54.364000,63.571000,54.095000C63.635000,53.827000,63.908000,53.136000,64.177000,52.561000C64.446000,51.985000,64.667000,51.445000,64.667000,51.361000C64.667000,51.171000,65.418000,49.409000,65.760000,48.796000C65.900000,48.546000,66.006000,48.300000,65.996000,48.250000C65.970000,48.114000,66.671000,46.280000,66.824000,46.085000C66.896000,45.993000,67.115000,45.484000,67.310000,44.955000C67.505000,44.426000,67.850000,43.628000,68.076000,43.182000C68.302000,42.736000,68.521000,42.184000,68.562000,41.955000C68.603000,41.727000,68.762000,41.299000,68.914000,41.005000C69.332000,40.197000,69.135000,40.234000,68.146000,41.147000M46.487000,44.410000C45.476000,44.782000,43.102000,46.009000,42.739000,46.346000C42.550000,46.523000,42.338000,46.667000,42.268000,46.667000C42.061000,46.667000,39.764000,48.594000,39.236000,49.210000C38.278000,50.329000,38.071000,50.598000,37.356000,51.650000C35.781000,53.965000,34.578000,57.295000,34.249000,60.250000C33.696000,65.214000,32.664000,68.949000,30.888000,72.417000C28.844000,76.407000,26.103000,79.899000,22.815000,82.703000L21.892000,83.490000L21.071000,83.183000C20.619000,83.013000,19.313000,82.757000,18.167000,82.613000C12.392000,81.885000,9.838000,77.521000,12.712000,73.290000C13.666000,71.885000,15.156000,71.118000,15.164000,72.028000C15.169000,72.586000,15.869000,73.933000,16.491000,74.583000C17.078000,75.197000,17.136000,75.343000,17.213000,76.417000C17.332000,78.057000,17.938000,79.303000,19.069000,80.229000C20.014000,81.003000,20.221000,80.998000,19.881000,80.208000C19.131000,78.468000,19.723000,76.174000,20.976000,75.966000C26.253000,75.087000,26.238000,67.240000,20.956000,66.132000C19.673000,65.863000,18.869000,66.026000,15.156000,67.309000C14.077000,67.681000,11.493000,69.006000,10.757000,69.564000C10.478000,69.775000,10.162000,69.979000,10.054000,70.016000C9.481000,70.214000,5.943000,73.517000,5.163000,74.583000C0.167000,81.411000,-1.379000,89.368000,0.922000,96.418000C1.148000,97.110000,1.333000,97.751000,1.333000,97.842000C1.333000,98.937000,4.366000,103.824000,6.331000,105.894000C11.580000,111.423000,23.647000,113.005000,31.815000,109.235000C32.493000,108.922000,33.103000,108.667000,33.172000,108.667000C34.279000,108.667000,39.897000,104.481000,41.914000,102.154000C42.424000,101.565000,42.943000,100.971000,43.066000,100.833000C43.532000,100.314000,45.122000,97.854000,45.658000,96.823000C45.965000,96.233000,46.279000,95.638000,46.356000,95.500000C46.676000,94.928000,47.833000,91.843000,47.835000,91.558000C47.836000,91.389000,47.948000,90.884000,48.084000,90.436000C49.241000,86.622000,49.209000,81.697000,47.997000,76.793000C47.322000,74.063000,45.685000,70.343000,44.481000,68.801000C44.216000,68.463000,44,68.142000,44,68.088000C44,68.034000,43.711000,67.480000,43.358000,66.857000C43.005000,66.235000,42.675000,65.543000,42.625000,65.321000C42.574000,65.099000,42.289000,64.242000,41.990000,63.417000L41.448000,61.917000L41.439000,58.500000C41.432000,55.817000,41.489000,54.887000,41.701000,54.167000C42.848000,50.277000,44.081000,48.042000,46.435000,45.581000C47.830000,44.123000,47.840000,43.912000,46.487000,44.410000M31.417000,58.926000C29.607000,59.346000,27.333000,60.333000,27.333000,60.697000C27.333000,60.772000,27.226000,60.833000,27.094000,60.833000C26.840000,60.833000,24.932000,62.727000,24.609000,63.300000C24.503000,63.488000,24.208000,63.999000,23.953000,64.436000C23.217000,65.694000,23.549000,65.898000,24.390000,64.705000C25.777000,62.735000,27.917000,61.241000,30.178000,60.664000C31.495000,60.328000,32.649000,59.497000,32.662000,58.875000C32.667000,58.630000,32.695000,58.628000,31.417000,58.926000M25.042000,60.655000C23.671000,61.649000,22.241000,64.833000,23.167000,64.833000C23.258000,64.833000,23.333000,64.626000,23.333000,64.373000C23.333000,63.623000,25.002000,61.491000,25.772000,61.257000C25.784000,61.253000,25.847000,61.006000,25.910000,60.708000C26.054000,60.039000,25.906000,60.030000,25.042000,60.655000M27.417000,63.198000C26.254000,63.605000,25.053000,64.545000,24.598000,65.402000C24.147000,66.252000,24.370000,66.312000,25.077000,65.529000C25.740000,64.795000,26.874000,64.136000,27.995000,63.835000C28.782000,63.623000,29.500000,63.216000,29.500000,62.981000C29.500000,62.725000,28.455000,62.834000,27.417000,63.198000M41.833000,108.808000C41.833000,108.886000,42.058000,109.261000,42.333000,109.640000C42.608000,110.020000,42.833000,110.391000,42.833000,110.466000C42.833000,110.540000,43.069000,110.972000,43.358000,111.426000C43.647000,111.879000,44.070000,112.583000,44.298000,112.990000C44.526000,113.397000,44.776000,113.810000,44.854000,113.907000C44.932000,114.004000,45.493000,114.833000,46.102000,115.750000C46.711000,116.667000,47.296000,117.492000,47.402000,117.583000C47.509000,117.675000,47.760000,117.984000,47.960000,118.269000C49.586000,120.587000,53.150000,123.932000,56.063000,125.875000C63.653000,130.938000,73.409000,131.472000,83.500000,127.378000C85.808000,126.441000,90.940000,123.834000,91.789000,123.165000C92.022000,122.983000,92.314000,122.833000,92.439000,122.833000C92.564000,122.833000,92.667000,122.721000,92.667000,122.583000C92.667000,122.286000,92.587000,122.275000,92.143000,122.512000C91.610000,122.798000,86.567000,123.797000,84.684000,123.990000C74.293000,125.057000,59.942000,121.093000,50.223000,114.473000C49.841000,114.213000,49.482000,114,49.424000,114C49.366000,114,48.913000,113.700000,48.417000,113.333000C47.920000,112.967000,47.471000,112.667000,47.419000,112.667000C47.366000,112.667000,46.954000,112.385000,46.503000,112.042000C46.052000,111.698000,45.183000,111.042000,44.572000,110.583000C43.962000,110.125000,43.163000,109.506000,42.799000,109.208000C42.135000,108.667000,41.833000,108.542000,41.833000,108.808000"/><path id="eiimr19nil25" fill="#2CAC64" fill-rule="evenodd" stroke="none" stroke-width="1" d="M38.145000,112.375000C37.313000,115.732000,37.494000,122.186000,38.522000,125.774000C40.468000,132.567000,46.413000,138.604000,53.333000,140.813000C53.654000,140.915000,54.554000,141.215000,55.333000,141.479000C56.112000,141.743000,57.200000,142.051000,57.750000,142.162000C58.300000,142.274000,59.275000,142.477000,59.917000,142.614000C63.336000,143.342000,71,144.042000,71,143.627000C71,143.580000,70.231000,143.261000,69.292000,142.918000C63.567000,140.828000,60.055000,139.148000,55.005000,136.083000C53.972000,135.457000,51.134000,133.415000,50.629000,132.936000C50.420000,132.738000,49.901000,132.297000,49.474000,131.957000C48.581000,131.244000,45.692000,128.329000,45.130000,127.574000C44.921000,127.293000,44.581000,126.885000,44.375000,126.667000C44.169000,126.449000,44,126.215000,44,126.147000C44,126.079000,43.887000,125.911000,43.749000,125.773000C41.539000,123.562000,38.833000,116.113000,38.833000,112.235000C38.833000,110.417000,38.620000,110.461000,38.145000,112.375000"/><path id="eiimr19nil26" fill="#049CE4" fill-rule="evenodd" stroke="none" stroke-width="1" d="M89.333000,0.344000C89.333000,0.774000,88.323000,5.067000,87.571000,7.833000C87.259000,8.979000,86.936000,10.254000,86.853000,10.667000C86.770000,11.079000,86.431000,12.317000,86.100000,13.417000C84.836000,17.615000,84.111000,19.969000,83.636000,21.417000C83.366000,22.242000,83.006000,23.404000,82.838000,24C82.485000,25.244000,81.829000,27.193000,81.155000,29C80.899000,29.688000,80.564000,30.662000,80.412000,31.167000C80.260000,31.671000,79.982000,32.458000,79.794000,32.917000C79.606000,33.375000,79.249000,34.350000,79,35.083000C78.200000,37.440000,77.794000,38.554000,77.236000,39.917000C76.935000,40.650000,76.638000,41.438000,76.575000,41.667000C76.512000,41.896000,76.170000,42.773000,75.814000,43.617000C75.458000,44.460000,75.167000,45.229000,75.167000,45.327000C75.167000,45.424000,75.021000,45.822000,74.843000,46.210000C74.665000,46.599000,74.220000,47.667000,73.853000,48.583000C72.063000,53.066000,71.350000,54.790000,70.646000,56.336000C70.291000,57.117000,70,57.835000,70,57.933000C70,58.031000,69.748000,58.630000,69.440000,59.264000C69.132000,59.898000,68.822000,60.604000,68.751000,60.833000C68.679000,61.063000,68.339000,61.850000,67.996000,62.583000C67.652000,63.317000,67.315000,64.099000,67.248000,64.322000C67.180000,64.545000,66.909000,65.142000,66.646000,65.650000C66.382000,66.158000,66.168000,66.651000,66.169000,66.745000C66.171000,66.840000,65.880000,67.517000,65.523000,68.250000C64.859000,69.612000,64.533000,70.308000,62.985000,73.667000C61.411000,77.080000,60.161000,79.712000,59.259000,81.510000C58.773000,82.478000,58.321000,83.444000,58.253000,83.657000C58.185000,83.870000,57.871000,84.487000,57.554000,85.027000C56.747000,86.404000,56.858000,86.992000,57.708000,85.849000C58.052000,85.387000,58.334000,84.950000,58.335000,84.879000C58.336000,84.808000,58.598000,84.421000,58.918000,84.018000C59.238000,83.616000,59.500000,83.232000,59.500000,83.165000C59.500000,83.035000,60.786000,81.019000,61.306000,80.333000C61.480000,80.104000,61.765000,79.654000,61.940000,79.333000C62.214000,78.830000,62.514000,78.337000,63.620000,76.574000C63.731000,76.396000,64.061000,75.837000,64.352000,75.333000C64.643000,74.829000,65.133000,74.029000,65.441000,73.555000C65.748000,73.081000,66,72.639000,66,72.573000C66,72.507000,66.300000,71.978000,66.667000,71.397000C67.033000,70.817000,67.333000,70.282000,67.333000,70.209000C67.333000,70.137000,67.537000,69.779000,67.786000,69.414000C68.035000,69.049000,68.436000,68.375000,68.677000,67.917000C68.918000,67.458000,69.440000,66.483000,69.835000,65.750000C70.231000,65.017000,70.878000,63.817000,71.273000,63.083000C71.960000,61.809000,75.753000,54.201000,76.922000,51.750000C78.013000,49.465000,80.340000,44.156000,80.336000,43.963000C80.334000,43.896000,80.556000,43.355000,80.829000,42.760000C81.101000,42.166000,81.376000,41.470000,81.440000,41.214000C81.504000,40.959000,81.734000,40.337000,81.950000,39.833000C82.167000,39.329000,82.409000,38.767000,82.488000,38.583000C82.930000,37.555000,85.307000,30.392000,85.972000,28.083000C86.847000,25.044000,87.789000,21.425000,87.924000,20.583000C87.983000,20.217000,88.242000,18.867000,88.501000,17.583000C89.476000,12.735000,90.089000,4.800000,89.760000,1.292000C89.652000,0.150000,89.333000,-0.559000,89.333000,0.344000"/><path id="eiimr19nil27" fill="#642484" fill-rule="evenodd" stroke="none" stroke-width="1" d="M98.941000,58.042000C98.394000,59.237000,97.713000,60.585000,97.107000,61.667000C96.876000,62.079000,96.524000,62.717000,96.324000,63.083000C95.813000,64.019000,93.036000,68.164000,92.583000,68.667000C92.376000,68.896000,92.112000,69.271000,91.994000,69.500000C91.877000,69.729000,91.644000,70.067000,91.477000,70.250000C91.309000,70.433000,90.454000,71.483000,89.576000,72.583000C85.833000,77.275000,79.453000,83.547000,74.911000,87C74.609000,87.229000,73.775000,87.883000,73.056000,88.453000C72.338000,89.023000,71.225000,89.863000,70.583000,90.321000C69.942000,90.778000,69.154000,91.347000,68.833000,91.584000C67.920000,92.260000,67.127000,92.794000,66.583000,93.102000C66.308000,93.257000,65.706000,93.654000,65.245000,93.984000C64.784000,94.314000,64.221000,94.691000,63.995000,94.822000C63.769000,94.953000,62.983000,95.436000,62.250000,95.895000C61.517000,96.354000,60.363000,97.034000,59.685000,97.406000C59.008000,97.779000,58.108000,98.274000,57.685000,98.507000C57.263000,98.740000,56.167000,99.333000,55.250000,99.825000C54.333000,100.317000,53.471000,100.781000,53.333000,100.856000C53.196000,100.930000,52.821000,101.102000,52.500000,101.236000C52.179000,101.371000,51.654000,101.628000,51.333000,101.809000C51.012000,101.989000,50.075000,102.454000,49.250000,102.842000C48.425000,103.229000,47.845000,103.580000,47.961000,103.621000C48.266000,103.729000,50.668000,103.216000,52.413000,102.671000C53.240000,102.412000,54.104000,102.164000,54.333000,102.120000C54.786000,102.034000,57.763000,101.028000,59.500000,100.374000C60.096000,100.150000,61.146000,99.757000,61.833000,99.501000C63.477000,98.889000,66.760000,97.475000,68,96.844000C68.137000,96.775000,68.813000,96.438000,69.500000,96.096000C70.188000,95.754000,70.900000,95.389000,71.083000,95.285000C71.267000,95.181000,71.904000,94.829000,72.500000,94.503000C75.503000,92.858000,79.731000,90.058000,81.938000,88.252000C84.330000,86.294000,84.929000,85.754000,86.927000,83.758000C88.778000,81.910000,90.433000,79.994000,92.123000,77.746000C95.826000,72.821000,99.046000,64.382000,99.609000,58.125000C99.735000,56.725000,99.553000,56.703000,98.941000,58.042000"/><path id="eiimr19nil28" fill="#941C84" fill-rule="evenodd" stroke="none" stroke-width="1" d="M100.261000,87.375000C99.812000,88.223000,99.233000,89.179000,98.976000,89.500000C98.719000,89.821000,98.225000,90.438000,97.879000,90.872000C96.783000,92.248000,93.828000,95.097000,92.470000,96.088000C91.304000,96.939000,89.082000,98.396000,89.059000,98.325000C89.046000,98.284000,88.896000,98.371000,88.726000,98.519000C88.370000,98.828000,85.202000,100.494000,84.333000,100.828000C83.695000,101.074000,82.534000,101.570000,81.750000,101.933000C81.475000,102.060000,80.875000,102.269000,80.417000,102.397000C79.958000,102.525000,79.171000,102.792000,78.667000,102.991000C78.162000,103.190000,77.300000,103.454000,76.750000,103.577000C76.200000,103.701000,74.850000,104.029000,73.750000,104.306000C72.650000,104.583000,71.337000,104.860000,70.833000,104.921000C70.329000,104.982000,69.878000,105.056000,69.830000,105.085000C68.747000,105.750000,60.593000,106.298000,52.221000,106.268000C45.046000,106.242000,44.667000,106.253000,44.667000,106.483000C44.667000,107.053000,58.573000,109.878000,61.917000,109.988000C62.375000,110.003000,63.612000,110.085000,64.667000,110.172000C68.584000,110.491000,76.225000,110.188000,78.833000,109.608000C82.814000,108.724000,87.012000,107.322000,88.190000,106.484000C88.435000,106.309000,88.698000,106.167000,88.776000,106.167000C89.752000,106.167000,94.745000,101.891000,96.250000,99.767000C96.433000,99.508000,96.664000,99.210000,96.763000,99.105000C97.158000,98.686000,99.667000,93.669000,99.667000,93.300000C99.667000,93.167000,99.852000,92.526000,100.079000,91.877000C100.664000,90.204000,100.850000,89.297000,101.090000,86.958000C101.236000,85.534000,101.238000,85.533000,100.261000,87.375000M24.417000,113.590000C23.867000,113.715000,22.929000,113.894000,22.333000,113.987000C17.087000,114.801000,13.048000,117.292000,11.883000,120.431000C10.851000,123.208000,11.139000,127.343000,12.588000,130.583000C12.793000,131.042000,13.016000,131.604000,13.082000,131.833000C13.240000,132.372000,14.181000,134.042000,14.274000,133.948000C14.314000,133.908000,14.177000,133.098000,13.970000,132.146000C12.156000,123.812000,15.279000,118.299000,23.554000,115.230000C26.636000,114.086000,27.236000,112.946000,24.417000,113.590000"/><path id="eiimr19nil29" fill="#0C74B4" fill-rule="evenodd" stroke="none" stroke-width="1" d="M33.987000,112.483000C32.209000,113.313000,27.500000,116.853000,27.500000,117.361000C27.500000,117.439000,27.305000,117.670000,27.068000,117.876000C23.993000,120.534000,23.313000,126.726000,25.602000,131.214000C27.290000,134.523000,29.374000,136.797000,35,141.467000C35.321000,141.733000,36.296000,142.428000,37.167000,143.010000C38.037000,143.593000,38.967000,144.246000,39.232000,144.461000C40.301000,145.327000,40.055000,144.535000,38.814000,143.110000C37.317000,141.392000,35.439000,138.889000,34.583000,137.475000C32.163000,133.470000,31.412000,131.893000,30.233000,128.333000C28.391000,122.771000,29.885000,116.782000,34.027000,113.125000C35.265000,112.032000,35.257000,111.891000,33.987000,112.483000"/></g></g></g></g><path id="eiimr19nil210" fill="#2C2C84" fill-rule="evenodd" stroke="none" stroke-width="1" d="M131.667000,49.586000C128.077000,50.356000,125.104000,52.543000,124.323000,54.986000C124.248000,55.223000,124.063000,55.752000,123.914000,56.162000C123.369000,57.661000,123.297000,58.539000,123.191000,65.083000C123.106000,70.324000,123.034000,71.824000,122.854000,72.095000C122.487000,72.646000,121.558000,73.200000,120.620000,73.428000C119.872000,73.609000,120.712000,73.640000,126.610000,73.652000C134.449000,73.669000,134.575000,73.650000,136.175000,72.211000C137.218000,71.273000,137.349000,70.830000,137.492000,67.750000C137.705000,63.150000,137.947000,63.021000,145.985000,63.200000C149.728000,63.283000,149.885000,63.320000,150.618000,64.281000L151.083000,64.891000L151.083000,68.904000L151.083000,72.917000L150.553000,74.083000C149.855000,75.617000,148.807000,76.777000,147.108000,77.896000C145.858000,78.719000,142.199000,80.333000,141.584000,80.333000C141.453000,80.333000,140.536000,80.625000,139.548000,80.982000C137.233000,81.816000,134.705000,82.688000,133.333000,83.123000C127.105000,85.100000,124.011000,88.103000,123.329000,92.833000C123.113000,94.339000,123.123000,111.244000,123.342000,112.989000C124.011000,118.325000,126.600000,121.153000,131.833000,122.264000C133.183000,122.551000,169.167000,122.617000,169.167000,122.333000C169.167000,122.242000,168.951000,122.167000,168.688000,122.167000C168.065000,122.167000,166.853000,121.736000,166.450000,121.371000C165.523000,120.533000,165.591000,122.833000,165.500000,88.917000L165.417000,57.750000L164.862000,56.167000C164.385000,54.808000,163.878000,53.801000,163.312000,53.092000C163.235000,52.996000,162.976000,52.673000,162.738000,52.375000C162.499000,52.077000,162.198000,51.833000,162.069000,51.833000C161.939000,51.833000,161.833000,51.765000,161.833000,51.681000C161.833000,51.395000,160.252000,50.574000,158.583000,49.995000L156.917000,49.417000L144.833000,49.385000C135.033000,49.360000,132.545000,49.398000,131.667000,49.586000M359.917000,49.577000C359.367000,49.700000,358.579000,49.925000,358.167000,50.077000C357.754000,50.229000,357.192000,50.424000,356.917000,50.511000C356.023000,50.791000,354.226000,52.265000,353.538000,53.281000C351.737000,55.941000,351.647000,56.438000,351.517000,64.500000C351.385000,72.699000,351.352000,72.804000,348.766000,73.432000C348.047000,73.607000,348.979000,73.640000,354.833000,73.649000L361.750000,73.659000L362.749000,73.248000C363.299000,73.022000,363.774000,72.761000,363.805000,72.669000C363.836000,72.576000,363.954000,72.500000,364.068000,72.500000C365.011000,72.500000,365.709000,70.536000,365.840000,67.510000C366.032000,63.110000,365.805000,63.250000,372.727000,63.250000L377.871000,63.250000L378.612000,64.069000L379.354000,64.888000L379.302000,69.069000L379.250000,73.250000L378.690000,74.323000C377.782000,76.064000,374.431000,79,373.352000,79C373.248000,79,373.032000,79.074000,372.873000,79.165000C372.429000,79.418000,370.017000,80.333000,369.794000,80.333000C369.686000,80.333000,368.807000,80.620000,367.840000,80.970000C366.874000,81.320000,365.183000,81.899000,364.083000,82.257000C355.720000,84.973000,353.140000,86.910000,351.921000,91.385000L351.486000,92.983000L351.543000,103.366000C351.599000,113.557000,351.608000,113.776000,351.980000,115.159000C353.062000,119.175000,355.427000,121.254000,360.053000,122.254000C361.442000,122.555000,397.333000,122.631000,397.333000,122.333000C397.333000,122.242000,397.127000,122.167000,396.875000,122.167000C395.888000,122.169000,394.819000,121.622000,394.272000,120.835000L393.750000,120.083000L393.660000,88.833000C393.561000,54.350000,393.658000,57.215000,392.503000,54.752000C391.297000,52.182000,389.634000,50.906000,385.917000,49.701000C384.764000,49.327000,361.529000,49.217000,359.917000,49.577000M172.833000,49.667000C172.833000,49.758000,173.110000,49.833000,173.447000,49.833000C174.336000,49.833000,175.422000,50.418000,175.869000,51.137000L176.250000,51.750000L176.335000,68.917000C176.428000,87.465000,176.394000,86.788000,177.276000,88.079000C177.399000,88.260000,177.500000,88.505000,177.500000,88.625000C177.500000,89.784000,181.836000,94.693000,184.032000,96.019000C186.515000,97.520000,189.743000,98.068000,191.958000,97.365000L193,97.035000L193.001000,107.892000C193.002000,120.668000,192.993000,120.609000,195.174000,121.833000L195.917000,122.250000L203.292000,122.298000C208.314000,122.331000,210.667000,122.291000,210.667000,122.173000C210.667000,122.078000,210.385000,121.994000,210.042000,121.987000C209.023000,121.967000,208.291000,121.609000,207.708000,120.848000L207.167000,120.141000L207.167000,105.254000L207.167000,90.368000L207.958000,89.889000C208.394000,89.625000,208.938000,89.302000,209.167000,89.172000C209.396000,89.041000,210.183000,88.576000,210.917000,88.139000C211.650000,87.701000,212.625000,87.143000,213.083000,86.900000C213.542000,86.656000,214.299000,86.204000,214.767000,85.895000C215.235000,85.586000,215.670000,85.333000,215.734000,85.333000C215.797000,85.333000,216.239000,85.085000,216.716000,84.782000C217.193000,84.478000,217.714000,84.180000,217.874000,84.120000C219.298000,83.585000,221.703000,81.356000,222.393000,79.931000C223.938000,76.742000,223.889000,77.242000,223.992000,63.554000C224.082000,51.747000,224.090000,51.515000,224.426000,51.054000C224.860000,50.459000,226.070000,49.833000,226.785000,49.833000C227.087000,49.833000,227.333000,49.755000,227.333000,49.660000C227.333000,49.542000,225.008000,49.502000,220.042000,49.535000C209.205000,49.607000,209.953000,48.784000,209.833000,60.766000L209.750000,69.115000L209.113000,70.369000C207.944000,72.672000,204.383000,75.775000,202.167000,76.423000C201.938000,76.489000,201.201000,76.797000,200.529000,77.105000C199.858000,77.414000,199.244000,77.667000,199.164000,77.667000C199.085000,77.667000,198.382000,77.967000,197.603000,78.333000C196.824000,78.700000,196.107000,79,196.009000,79C195.912000,79,195.439000,79.190000,194.959000,79.421000C192.896000,80.416000,191.103000,79.916000,190.523000,78.183000C190.388000,77.780000,190.332000,74.008000,190.330000,65.100000C190.325000,50.358000,190.435000,51.064000,187.960000,49.911000L187.083000,49.503000L179.958000,49.502000C175.318000,49.501000,172.833000,49.558000,172.833000,49.667000M233.250000,49.667000C233.188000,49.766000,233.402000,49.835000,233.782000,49.837000C234.838000,49.843000,235.739000,50.363000,236.276000,51.276000L236.750000,52.083000L236.750000,85.930000L236.750000,119.776000L236.243000,120.596000C235.685000,121.500000,235.190000,121.810000,234.041000,121.974000C233.621000,122.034000,233.246000,122.177000,233.208000,122.292000C233.154000,122.456000,234.439000,122.498000,239.278000,122.493000C251.516000,122.478000,250.832000,123.313000,250.836000,108.367000C250.838000,101.092000,250.891000,98.407000,251.044000,97.897000C251.221000,97.306000,252.490000,95.667000,252.769000,95.667000C252.822000,95.667000,253.078000,95.515000,253.338000,95.330000C253.598000,95.145000,254.290000,94.813000,254.876000,94.593000C255.998000,94.170000,257.385000,93.589000,260,92.443000C262.566000,91.320000,263.820000,91.482000,264.266000,92.997000C264.334000,93.228000,264.434000,99.234000,264.487000,106.344000L264.583000,119.271000L265.099000,120.261000C265.524000,121.075000,265.774000,121.338000,266.516000,121.750000L267.417000,122.250000L274.806000,122.298000C279.888000,122.331000,282.161000,122.292000,282.087000,122.173000C282.029000,122.078000,281.731000,122,281.427000,122C280.295000,122,279.259000,121.263000,278.734000,120.083000C278.653000,119.900000,278.545000,112.850000,278.494000,104.417000C278.404000,89.337000,278.397000,89.068000,278.052000,88.167000C277.215000,85.982000,276.770000,85.243000,275.566000,84.034000L274.356000,82.818000L275.568000,81.617000C276.777000,80.420000,277.208000,79.706000,278.057000,77.500000C278.402000,76.605000,278.412000,76.299000,278.497000,64.333000L278.583000,52.083000L279.058000,51.276000C279.593000,50.366000,280.495000,49.843000,281.542000,49.837000C281.885000,49.835000,282.167000,49.755000,282.167000,49.660000C282.167000,49.542000,279.814000,49.502000,274.792000,49.535000L267.417000,49.583000L266.620000,50.060000C264.590000,51.276000,264.502000,51.712000,264.501000,60.614000C264.500000,69.230000,264.441000,69.740000,263.253000,71.512000C261.508000,74.114000,258.228000,76.210000,252.630000,78.301000L250.843000,78.968000L250.796000,65.859000L250.750000,52.750000L250.250000,51.773000C249.729000,50.753000,248.930000,50.061000,247.850000,49.693000C247.116000,49.443000,233.404000,49.418000,233.250000,49.667000M287.750000,49.667000C287.689000,49.766000,287.889000,49.833000,288.246000,49.833000C288.920000,49.833000,289.914000,50.204000,290.386000,50.631000C291.292000,51.451000,291.243000,50.487000,291.333000,69.167000L291.417000,86.417000L292.156000,87.999000C293.361000,90.578000,297.460000,95.667000,298.332000,95.667000C298.406000,95.667000,298.942000,95.955000,299.525000,96.308000C300.107000,96.660000,300.771000,96.992000,301,97.044000C301.229000,97.097000,301.867000,97.267000,302.417000,97.422000C303.615000,97.759000,306.183000,97.683000,307.284000,97.278000L307.985000,97.020000L308.034000,108.306000L308.083000,119.591000L308.642000,120.462000C309.095000,121.168000,309.399000,121.427000,310.249000,121.833000L311.298000,122.333000L318.399000,122.333000C323.022000,122.333000,325.500000,122.275000,325.500000,122.167000C325.500000,122.075000,325.235000,122,324.911000,122C324.116000,122,323.352000,121.650000,322.750000,121.010000L322.250000,120.478000L322.250000,105.366000L322.250000,90.253000L323.583000,89.465000C324.317000,89.032000,325.292000,88.478000,325.750000,88.234000C326.208000,87.990000,326.966000,87.537000,327.434000,87.228000C327.902000,86.919000,328.335000,86.667000,328.396000,86.667000C328.458000,86.667000,328.975000,86.384000,329.546000,86.039000C330.116000,85.694000,330.733000,85.322000,330.917000,85.211000C331.100000,85.101000,331.813000,84.695000,332.500000,84.308000C335.743000,82.486000,337.167000,80.907000,338.074000,78.129000C338.795000,75.919000,338.831000,75.251000,338.832000,63.883000C338.833000,52.956000,338.890000,51.744000,339.439000,50.906000C339.758000,50.418000,341.006000,49.833000,341.727000,49.833000C342.060000,49.833000,342.333000,49.758000,342.333000,49.667000C342.333000,49.558000,339.838000,49.500000,335.181000,49.500000L328.029000,49.500000L326.979000,50.044000C326.161000,50.467000,325.816000,50.769000,325.423000,51.405000L324.917000,52.223000L324.833000,60.570000L324.750000,68.917000L324.207000,70.063000C323.517000,71.520000,322.380000,72.932000,321,74.044000C320.404000,74.524000,319.892000,74.973000,319.861000,75.042000C319.831000,75.110000,319.715000,75.167000,319.603000,75.167000C319.492000,75.167000,318.992000,75.427000,318.492000,75.746000C317.992000,76.064000,317.488000,76.327000,317.371000,76.329000C317.255000,76.331000,316.516000,76.633000,315.730000,77C314.944000,77.367000,314.236000,77.667000,314.157000,77.667000C314.079000,77.667000,313.355000,77.958000,312.549000,78.315000C307.906000,80.369000,307.524000,80.400000,305.667000,78.874000C305.621000,78.837000,305.546000,72.981000,305.500000,65.861000L305.417000,52.917000L304.917000,51.917000C304.364000,50.811000,303.397000,49.959000,302.371000,49.674000C301.540000,49.444000,287.892000,49.436000,287.750000,49.667000M150.793000,106.992000C150.090000,108.407000,149.702000,108.500000,144.490000,108.500000C137.732000,108.500000,137.633000,108.428000,137.529000,103.417000C137.460000,100.158000,137.597000,99.128000,138.265000,97.872000C138.636000,97.175000,139.891000,95.667000,140.100000,95.667000C140.152000,95.667000,140.514000,95.404000,140.906000,95.083000C141.297000,94.763000,141.659000,94.500000,141.708000,94.500000C141.758000,94.500000,142.293000,94.200000,142.897000,93.833000C143.500000,93.467000,144.066000,93.167000,144.154000,93.167000C144.242000,93.167000,144.899000,92.868000,145.615000,92.502000C146.331000,92.137000,147.004000,91.837000,147.110000,91.835000C147.217000,91.834000,147.929000,91.561000,148.694000,91.229000C149.458000,90.896000,150.308000,90.575000,150.583000,90.514000L151.083000,90.403000L151.127000,98.318000L151.170000,106.233000L150.793000,106.992000M379.085000,106.997000C378.947000,107.264000,378.558000,107.693000,378.222000,107.950000L377.610000,108.417000L372.938000,108.468000C365.820000,108.547000,365.833000,108.557000,365.833000,102.841000C365.833000,99.953000,365.875000,99.442000,366.183000,98.528000C367.073000,95.893000,371.029000,93.323000,378.167000,90.740000L379.250000,90.348000L379.293000,98.429000C379.330000,105.366000,379.301000,106.579000,379.085000,106.997000" opacity="0"/><path id="eiimr19nil211" fill="#305C8C" fill-rule="evenodd" stroke="none" stroke-width="1" opacity="0"/><path id="eiimr19nil212" fill="#48208C" fill-rule="evenodd" stroke="none" stroke-width="1"/></g></svg>