<svg xmlns="http://www.w3.org/2000/svg" viewBox="0 0 372.25 133.9"><defs><style>.cls-1{fill:#951b81;}.cls-2{fill:#1d71b8;}.cls-3{fill:#2fac66;}.cls-4{fill:#dedc00;}.cls-5{fill:#e71d73;}.cls-6{fill:#662483;}.cls-7{fill:#e6332a;}.cls-8{fill:#009fe3;}.cls-9{fill:#ea5b0c;}.cls-10{fill:#95c11f;}.cls-11{fill:#be1622;}.cls-12{font-size:87.46px;fill:#fff;font-family:Thailandesa;letter-spacing:-0.02em;}.cls-13{letter-spacing:0em;}</style></defs><title>logo_white_website</title><g id="Layer_2" data-name="Layer 2"><g id="Layer_2-2" data-name="Layer 2"><path class="cls-1" d="M17.66,103.66s-12.8,2.07-4.89,17.15c0,0-4.12-11.89,6.47-16.12S17.66,103.66,17.66,103.66Z"/><path class="cls-2" d="M31.48,101.3S7,112,36,130.62C36,130.62,17.81,111.62,31.48,101.3Z"/><path class="cls-3" d="M34.86,100.2S26,128.72,64,129.7C64,129.7,34.7,121.4,34.86,100.2Z"/><path class="cls-4" d="M37.83,98.25l.27.38c2.41,3.38,14.34,31.33,45.42,12C83.52,110.62,63.21,118.77,37.83,98.25Z"/><path class="cls-5" d="M40.32,96.1s47.25,15.24,50.93-18.5c0,0-7.33,21.07-50.22,18.36"/><path class="cls-6" d="M43.13,93.58S87,85.14,89.82,51.51C89.82,51.51,80.55,76.57,43.13,93.58Z"/><path class="cls-7" d="M49.25,86.2S81.22,65,85.49,29.08C85.49,29.08,73.06,63,49.25,86.2Z"/><path class="cls-8" d="M51.41,78.13S83.25,32.64,80.81,0C80.81,0,75.61,29.28,51.41,78.13Z"/><path class="cls-9" d="M46.63,68.5s-9.11-34.14,16.43-44C63.06,24.51,45.08,37.87,46.63,68.5Z"/><path class="cls-10" d="M50.92,68.06s.45-21.65,11.37-31.52C62.29,36.54,53.68,55.84,50.92,68.06Z"/><path class="cls-11" d="M29.32,53.18a9.66,9.66,0,0,0-8,5.89,9.77,9.77,0,0,1,.92-1.32,9.58,9.58,0,0,1,6.06-3.4l.32-.43A8.38,8.38,0,0,1,29.32,53.18Z"/><path class="cls-11" d="M26.4,56.83a5.07,5.07,0,0,0-3.58,1.6A5.15,5.15,0,0,0,22,59.66a4.88,4.88,0,0,1,.53-.67,5.08,5.08,0,0,1,3.32-1.58L26,57.2A2.79,2.79,0,0,1,26.4,56.83Z"/><path class="cls-11" d="M23.32,54.48A4.59,4.59,0,0,0,21,57.15a4.51,4.51,0,0,0-.24,1.34,5.11,5.11,0,0,1,.18-.75,4.63,4.63,0,0,1,2.12-2.56,2.25,2.25,0,0,1,.08-.24A3.14,3.14,0,0,1,23.32,54.48Z"/><path class="cls-11" d="M22.82,58.43A5.15,5.15,0,0,0,22,59.66a4.88,4.88,0,0,1,.53-.67,5.08,5.08,0,0,1,3.32-1.58L26,57.2a2.79,2.79,0,0,1,.4-.37A5.07,5.07,0,0,0,22.82,58.43Z"/><path class="cls-11" d="M23.14,54.94a3.14,3.14,0,0,1,.18-.46A4.59,4.59,0,0,0,21,57.15a4.51,4.51,0,0,0-.24,1.34,5.11,5.11,0,0,1,.18-.75,4.63,4.63,0,0,1,2.12-2.56A2.25,2.25,0,0,1,23.14,54.94Z"/><path class="cls-11" d="M28.6,53.92a8.38,8.38,0,0,1,.72-.74,9.66,9.66,0,0,0-8,5.89,9.77,9.77,0,0,1,.92-1.32,9.58,9.58,0,0,1,6.06-3.4Z"/><path class="cls-11" d="M37.12,54.23A16.85,16.85,0,0,0,39.83,62l.07.11a24.58,24.58,0,0,1,3.88,10.47c0,.28.07.56.09.85a24.67,24.67,0,0,1-33.5,25.26l-.07,0L10,98.51a12.32,12.32,0,0,1-4-2.75l-.09-.1-.17-.18,0,0A21.48,21.48,0,0,1,17.16,59.87a4.37,4.37,0,0,1,5.21,4.61,4.64,4.64,0,0,1-.24,1.14,3.92,3.92,0,0,1-.22.51,4.46,4.46,0,0,1-1.09,1.37,4.39,4.39,0,0,1-2.69,1,4.69,4.69,0,0,0-.61,2.78A4.57,4.57,0,0,0,18,72.87a4.7,4.7,0,0,1-2.25-5,4.35,4.35,0,0,1-2-3.65,5.4,5.4,0,0,0,1.66,10.4h.14a12.57,12.57,0,0,1,3.58.71l.66.25A29.59,29.59,0,0,0,31,54.68c0-.24,0-.47.07-.71A16.93,16.93,0,0,1,42.78,40,16.89,16.89,0,0,0,37.12,54.23Z"/><path class="cls-11" d="M22.82,58.43A5.15,5.15,0,0,0,22,59.66a4.88,4.88,0,0,1,.53-.67,5.08,5.08,0,0,1,3.32-1.58L26,57.2a2.79,2.79,0,0,1,.4-.37A5.07,5.07,0,0,0,22.82,58.43Z"/><path class="cls-11" d="M23.14,54.94a3.14,3.14,0,0,1,.18-.46A4.59,4.59,0,0,0,21,57.15a4.51,4.51,0,0,0-.24,1.34,5.11,5.11,0,0,1,.18-.75,4.63,4.63,0,0,1,2.12-2.56A2.25,2.25,0,0,1,23.14,54.94Z"/><path class="cls-11" d="M29.32,53.18a9.66,9.66,0,0,0-8,5.89,9.77,9.77,0,0,1,.92-1.32,9.58,9.58,0,0,1,6.06-3.4l.32-.43A8.38,8.38,0,0,1,29.32,53.18Z"/><text class="cls-12" transform="translate(116.74 111.65)">A<tspan class="cls-13" x="47.87" y="0">ykya</tspan></text></g></g></svg>